<svg xmlns="http://www.w3.org/2000/svg" width="1280" height="840" viewBox="0 0 1280 840" role="img" aria-label="授权视频文案助手软件界面">
  <rect width="1280" height="840" fill="#f4f6fb"/>
  <rect x="92" y="72" width="1096" height="696" rx="18" fill="#ffffff" stroke="#d9e0ea" stroke-width="2"/>
  <rect x="92" y="72" width="1096" height="78" rx="18" fill="#101828"/>
  <text x="132" y="122" fill="#ffffff" font-family="Microsoft YaHei, Segoe UI, sans-serif" font-size="28" font-weight="700">授权视频文案助手</text>
  <rect x="1000" y="95" width="132" height="32" rx="16" fill="#ecfdf3"/>
  <text x="1031" y="118" fill="#027a48" font-family="Microsoft YaHei, Segoe UI, sans-serif" font-size="16" font-weight="700">已完成</text>
  <rect x="132" y="190" width="392" height="470" rx="10" fill="#f8fafc" stroke="#d0d5dd"/>
  <text x="160" y="236" fill="#344054" font-family="Microsoft YaHei, Segoe UI, sans-serif" font-size="20" font-weight="700">来源备注</text>
  <rect x="160" y="258" width="336" height="112" rx="8" fill="#ffffff" stroke="#d0d5dd"/>
  <text x="180" y="303" fill="#667085" font-family="Microsoft YaHei, Segoe UI, sans-serif" font-size="18">客户授权素材 / 内部视频</text>
  <text x="160" y="414" fill="#344054" font-family="Microsoft YaHei, Segoe UI, sans-serif" font-size="20" font-weight="700">视频文件</text>
  <rect x="160" y="438" width="336" height="58" rx="8" fill="#ffffff" stroke="#d0d5dd"/>
  <text x="180" y="474" fill="#667085" font-family="Microsoft YaHei, Segoe UI, sans-serif" font-size="17">authorized-video.mp4</text>
  <rect x="160" y="536" width="156" height="54" rx="8" fill="#155eef"/>
  <text x="196" y="570" fill="#ffffff" font-family="Microsoft YaHei, Segoe UI, sans-serif" font-size="18" font-weight="700">开始处理</text>
  <rect x="338" y="536" width="156" height="54" rx="8" fill="#eef4ff"/>
  <text x="374" y="570" fill="#1849a9" font-family="Microsoft YaHei, Segoe UI, sans-serif" font-size="18" font-weight="700">选择文案</text>
  <rect x="560" y="190" width="588" height="470" rx="10" fill="#f8fafc" stroke="#d0d5dd"/>
  <text x="596" y="236" fill="#344054" font-family="Microsoft YaHei, Segoe UI, sans-serif" font-size="20" font-weight="700">文案结果</text>
  <rect x="596" y="266" width="516" height="324" rx="8" fill="#ffffff" stroke="#d0d5dd"/>
  <text x="624" y="320" fill="#101828" font-family="Microsoft YaHei, Segoe UI, sans-serif" font-size="20">今天这个方法，适合用来整理客户授权视频。</text>
  <text x="624" y="366" fill="#101828" font-family="Microsoft YaHei, Segoe UI, sans-serif" font-size="20">上传后系统会提取字幕或转写口播内容。</text>
  <text x="624" y="412" fill="#101828" font-family="Microsoft YaHei, Segoe UI, sans-serif" font-size="20">处理完成后，可以复制文案并下载视频副本。</text>
  <rect x="936" y="606" width="176" height="44" rx="8" fill="#eef4ff"/>
  <text x="994" y="634" fill="#1849a9" font-family="Microsoft YaHei, Segoe UI, sans-serif" font-size="17" font-weight="700">复制文案</text>
  <rect x="132" y="692" width="1016" height="44" rx="8" fill="#eef4ff"/>
  <text x="160" y="721" fill="#1849a9" font-family="Microsoft YaHei, Segoe UI, sans-serif" font-size="17">下载链接已生成：authorized-video.mp4</text>
</svg>
